<?xml version="1.0" encoding="utf-8"?>
<!-- Generator: Adobe Illustrator 25.0.1, SVG Export Plug-In . SVG Version: 6.00 Build 0)  -->
<svg version="1.1" id="Camada_1" xmlns="http://www.w3.org/2000/svg" xmlns:xlink="http://www.w3.org/1999/xlink" x="0px" y="0px"
	 viewBox="0 0 24 24" style="enable-background:new 0 0 24 24;" xml:space="preserve">
<style type="text/css">
	.st0{fill:none;stroke:#00B09B;stroke-width:2;stroke-linecap:round;stroke-linejoin:round;}
	.st1{fill:#00B09B;}
</style>
<path class="st0" d="M2,4c0-1.1,0.9-2,2-2h16c1.1,0,2,0.9,2,2v4c0,1.1-0.9,2-2,2H4c-1.1,0-2-0.9-2-2V4z"/>
<path class="st0" d="M2,16c0-1.1,0.9-2,2-2h16c1.1,0,2,0.9,2,2v4c0,1.1-0.9,2-2,2H4c-1.1,0-2-0.9-2-2V16z"/>
<circle class="st1" cx="6" cy="6" r="1"/>
<circle class="st1" cx="6" cy="18" r="1"/>
</svg>
