<svg width="167" height="24" viewBox="0 0 167 24" fill="none" xmlns="http://www.w3.org/2000/svg">
<g clip-path="url(#clip0_3616_2943)">
<path d="M56.0631 19.7598V9.41797L50.8789 14.5755L56.0631 19.7598Z" fill="#00B09B"/>
<path d="M116.354 19.7598V9.41797L121.538 14.5755L116.354 19.7598Z" fill="#00B09B"/>
<path d="M166.97 23.5859L160.785 16.224L157.426 12.2259L146.839 -0.377911L146.809 -0.414062H140.023H140.024H140.023V23.5859H145.858V6.55621L155.514 18.0944L160.11 23.5851V23.5859H166.97Z" fill="white"/>
<path d="M41.7591 19.8251V16.0912H49.0616L47.5381 14.5659L49.2863 12.8264H41.7591V9.35072H52.7766L56.0586 6.08594H37.625V23.0898H56.062L52.7973 19.8251H41.7591Z" fill="white"/>
<path d="M80.1811 23.0898H75.3437L63.8115 10.9457H63.7409V23.0898H59.6094V6.08594H64.4424L75.9583 18.2473H76.0443V6.08594H80.1759L80.1811 23.0898Z" fill="white"/>
<path d="M137.139 4.09879H87.1737V23.0919H83.0422V4.09879H37.627V-0.414062H137.139V4.09879Z" fill="white"/>
<path d="M113.21 14.5616C113.21 17.0985 112.231 19.1731 110.274 20.7856C108.019 22.6488 105.138 23.5804 101.631 23.5804C98.1237 23.5804 95.2506 22.6488 93.0115 20.7856C91.0697 19.1737 90.099 17.0991 90.0996 14.5616C90.0996 12.0568 91.078 9.99795 93.0347 8.38493C95.3054 6.50852 98.1779 5.57031 101.652 5.57031C105.127 5.57031 108 6.50967 110.272 8.38837C112.23 10.0014 113.21 12.0591 113.21 14.5616ZM108.958 14.5616C108.958 12.8642 108.293 11.4847 106.962 10.4232C105.632 9.36158 103.862 8.83223 101.652 8.8351C99.4444 8.8351 97.6753 9.3656 96.3451 10.4266C95.015 11.4876 94.3499 12.8659 94.3499 14.5616C94.3499 16.2917 95.0075 17.6832 96.3227 18.7362C97.638 19.7892 99.4074 20.3156 101.631 20.3156C103.869 20.3156 105.65 19.7892 106.974 18.7362C108.299 17.6832 108.96 16.2917 108.958 14.5616Z" fill="white"/>
<path d="M132.817 16.772C135.399 16.0679 136.69 14.3614 136.69 11.6523C136.69 9.99284 136.103 8.65008 134.928 7.62408C133.754 6.59808 132.204 6.08536 130.28 6.08594H116.354L120.485 10.1977V9.35072H129.81C130.671 9.35072 131.352 9.55156 131.853 9.95324C132.095 10.1392 132.289 10.3799 132.419 10.6556C132.55 10.9312 132.613 11.2339 132.604 11.5387C132.604 12.2434 132.362 12.7994 131.877 13.2068C131.392 13.6143 130.711 13.818 129.834 13.818H124.119L124.875 14.5702L122.364 17.081H128.303L132.468 23.0898H137.134L132.817 16.772ZM120.486 23.0898V18.9583L116.354 23.0898H120.486Z" fill="white"/>
<path d="M34.7394 23.5851H28.9054V6.54674H28.8055L17.3697 20.3039L5.93394 6.54674H5.83409V23.5894H0V-0.414062H6.78435L17.3482 12.2922L27.9112 -0.414062H34.7394V23.5851Z" fill="white"/>
</g>
<defs>
<clipPath id="clip0_3616_2943">
<rect width="167" height="24" fill="white"/>
</clipPath>
</defs>
</svg>
